<svg width="20" height="20" viewBox="0 0 20 20" fill="none" xmlns="http://www.w3.org/2000/svg">
<path d="M9.99984 1.66675C5.39984 1.66675 1.6665 5.40008 1.6665 10.0001C1.6665 14.6001 5.39984 18.3334 9.99984 18.3334C14.5998 18.3334 18.3332 14.6001 18.3332 10.0001C18.3332 5.40008 14.5998 1.66675 9.99984 1.66675ZM13.3582 8.50009L9.46649 12.3834C9.34983 12.5084 9.19149 12.5668 9.02483 12.5668C8.86649 12.5668 8.70816 12.5084 8.58316 12.3834L6.64151 10.4418C6.39984 10.2001 6.39984 9.80006 6.64151 9.55839C6.88317 9.31672 7.28317 9.31672 7.52484 9.55839L9.02483 11.0584L12.4748 7.61676C12.7165 7.36676 13.1165 7.36676 13.3582 7.61676C13.5998 7.85843 13.5998 8.25009 13.3582 8.50009Z" fill="#00953B"/>
</svg>
