<svg width="24" height="24" viewBox="0 0 24 24" fill="none" xmlns="http://www.w3.org/2000/svg">
<path d="M20.94 8.28975C20.87 6.84975 20.54 5.56976 19.49 4.51976C18.44 3.46976 17.16 3.13977 15.72 3.06977C14.23 2.98977 9.78002 2.98977 8.30002 3.06977C6.86002 3.13977 5.59003 3.46976 4.53003 4.51976C3.47003 5.56976 3.15002 6.84975 3.08002 8.28975C3.00002 9.77975 3.00002 14.2298 3.08002 15.7198C3.15002 17.1598 3.48003 18.4398 4.53003 19.4898C5.59003 20.5398 6.86002 20.8698 8.30002 20.9398C9.79002 21.0198 14.24 21.0198 15.72 20.9398C17.16 20.8698 18.44 20.5398 19.49 19.4898C20.54 18.4398 20.87 17.1598 20.94 15.7198C21.02 14.2298 21.02 9.77976 20.94 8.29976V8.28975ZM12 16.7498C9.38003 16.7498 7.25003 14.6198 7.25003 11.9998C7.25003 9.37976 9.38003 7.24976 12 7.24976C14.62 7.24976 16.75 9.37976 16.75 11.9998C16.75 14.6198 14.62 16.7498 12 16.7498ZM17.52 7.49976C16.97 7.49976 16.52 7.04976 16.52 6.49976C16.52 5.94976 16.96 5.49976 17.52 5.49976C18.07 5.49976 18.52 5.94976 18.52 6.49976C18.52 7.04976 18.07 7.49976 17.52 7.49976ZM15.25 11.9998C15.25 13.7898 13.79 15.2498 12 15.2498C10.21 15.2498 8.75003 13.7898 8.75003 11.9998C8.75003 10.2098 10.21 8.74976 12 8.74976C13.79 8.74976 15.25 10.2098 15.25 11.9998Z" fill="#EB039C"/>
</svg>
