<svg width="24" height="24" viewBox="0 0 24 24" fill="none" xmlns="http://www.w3.org/2000/svg">
<path d="M7.04019 21.0002H3.2502V9.6302H7.04019V21.0002ZM7.42019 5.2102C7.42019 4.0102 6.4702 3.0402 5.2702 3.0002C4.0502 2.9702 3.0302 3.93019 3.0002 5.15019C2.9702 6.37019 3.93019 7.39019 5.15019 7.42019C6.39019 7.43019 7.40019 6.4502 7.42019 5.2102ZM20.9502 14.1302C20.9502 10.5902 18.6602 9.51019 16.7102 9.51019C15.3402 9.47019 14.0502 10.1402 13.3002 11.2802V9.6402H9.6402V21.0102H13.4302V15.1102C13.4302 15.0502 13.4302 14.9902 13.4302 14.9302C13.4302 14.9302 13.4302 14.9302 13.4302 14.9202C13.3502 13.7102 14.2702 12.6602 15.4802 12.5802C16.4702 12.5802 17.2202 13.2202 17.2202 15.0202V21.0102H21.0102L20.9602 14.1402L20.9502 14.1302Z" fill="#0274B3"/>
</svg>
