<svg width="24" height="24" viewBox="0 0 24 24" fill="none" xmlns="http://www.w3.org/2000/svg">
<path d="M16.006 21.54C16.275 21.681 16.5651 21.75 16.8541 21.75C17.2301 21.75 17.605 21.631 17.923 21.396C18.487 20.986 18.7631 20.305 18.6451 19.619L17.9041 15.316C17.8901 15.235 17.916 15.153 17.976 15.095L21.216 11.95C21.697 11.483 21.8681 10.796 21.6611 10.157C21.4541 9.51698 20.912 9.05999 20.246 8.96399L15.7641 8.31598C15.6821 8.30398 15.612 8.25302 15.575 8.17902L13.6331 4.26202C13.3231 3.63702 12.6971 3.24902 11.9991 3.24902C11.3011 3.24902 10.675 3.63702 10.365 4.26202L8.42205 8.17999C8.38605 8.25299 8.31606 8.30398 8.23406 8.31598L3.75201 8.96399C3.08601 9.06099 2.54409 9.51798 2.33709 10.157C2.13009 10.796 2.30103 11.483 2.78203 11.95L6.023 15.096C6.081 15.153 6.10805 15.235 6.09405 15.316L5.35308 19.617C5.23508 20.304 5.5131 20.985 6.0761 21.396C6.6421 21.808 7.378 21.862 7.997 21.538L11.882 19.505C11.956 19.466 12.0441 19.466 12.1181 19.505L16.006 21.54Z" fill="#FAB527"/>
</svg>
