<svg width="24" height="24" viewBox="0 0 24 24" fill="none" xmlns="http://www.w3.org/2000/svg">
<g clip-path="url(#clip0_217_204)">
<path opacity="0.1" d="M23.25 12C23.25 18.2132 18.2132 23.25 12 23.25C5.7868 23.25 0.75 18.2132 0.75 12C0.75 5.7868 5.7868 0.75 12 0.75C18.2132 0.75 23.25 5.7868 23.25 12ZM3 12C3 16.9706 7.02944 21 12 21C16.9706 21 21 16.9706 21 12C21 7.02944 16.9706 3 12 3C7.02944 3 3 7.02944 3 12Z" fill="#00BFFF"/>
<path d="M22.125 12C22.7463 12 23.2558 12.505 23.1938 13.1232C22.9658 15.3961 22.0497 17.5558 20.5546 19.3063C18.8149 21.3432 16.4056 22.6925 13.7599 23.1115C11.1142 23.5305 8.40582 22.9918 6.12189 21.5922C3.83796 20.1926 2.12837 18.024 1.30061 15.4764C0.472863 12.9289 0.581276 10.1696 1.60636 7.69481C2.63143 5.22005 4.5059 3.19226 6.89261 1.97618C9.27931 0.760091 12.0216 0.435518 14.6263 1.06084C16.8647 1.59825 18.8753 2.80695 20.3958 4.51176C20.8093 4.97545 20.694 5.68347 20.1913 6.04867C19.6886 6.41388 18.9898 6.29659 18.5648 5.84338C17.3678 4.56703 15.8182 3.66094 14.101 3.24867C12.0173 2.74841 9.82345 3.00807 7.91408 3.98094C6.00472 4.95381 4.50515 6.57604 3.68508 8.55585C2.86502 10.5357 2.77829 12.7431 3.44049 14.7812C4.10269 16.8192 5.47037 18.5541 7.29751 19.6738C9.12466 20.7934 11.2914 21.2244 13.4079 20.8892C15.5245 20.554 17.4519 19.4745 18.8437 17.845C19.9906 16.5021 20.7116 14.8583 20.9298 13.1221C21.0073 12.5057 21.5037 12 22.125 12Z" fill="url(#paint0_linear_217_204)"/>
</g>
<defs>
<linearGradient id="paint0_linear_217_204" x1="12" y1="0.75" x2="12" y2="23.25" gradientUnits="userSpaceOnUse">
<stop stop-color="#00BFFF"/>
<stop offset="1" stop-color="#00CC99"/>
</linearGradient>
<clipPath id="clip0_217_204">
<rect width="24" height="24" fill="white"/>
</clipPath>
</defs>
</svg>
