<svg xmlns="http://www.w3.org/2000/svg" fill="none" viewBox="14.55084745762712 9.36 37.02542372881356 37.728" style="max-height: 500px" width="37.02542372881356" height="37.728">
<g filter="url(#filter0_d_19_282)">
<path fill="#7C3AED" d="M47.8543 30.3749C47.8543 26.6699 44.8302 23.6458 41.1252 23.6458H22.1252C21.0327 23.6458 20.146 24.5324 20.146 25.6249V37.4999C20.146 41.3316 22.2518 43.4374 26.0835 43.4374H35.5835C39.4152 43.4374 41.521 41.3316 41.521 37.4999V37.0566C45.0518 36.8508 47.8543 33.9374 47.8543 30.3749ZM41.521 34.6816V26.0525C43.7377 26.2583 45.4793 28.095 45.4793 30.3591C45.4793 32.6233 43.7377 34.4758 41.521 34.6658V34.6816ZM33.7152 17.5024C32.5277 16.2991 32.5277 14.3358 33.7152 13.1483L33.9527 12.9108C34.4118 12.4516 35.1718 12.4516 35.631 12.9108C36.0902 13.3699 36.106 14.1299 35.631 14.5891L35.3935 14.8266C35.1085 15.1116 35.1085 15.555 35.3935 15.84L35.8685 16.3149C37.056 17.5183 37.056 19.4816 35.8685 20.6691L35.631 20.9066C35.3935 21.1441 35.0927 21.255 34.7918 21.255C34.491 21.255 34.1902 21.1441 33.9527 20.9066C33.4935 20.4475 33.4777 19.6875 33.9527 19.2283L34.1902 18.9908C34.4752 18.7058 34.4752 18.2624 34.1902 17.9774L33.7152 17.5024ZM25.7985 17.5024C24.611 16.2991 24.611 14.3358 25.7985 13.1483L26.036 12.9108C26.4952 12.4516 27.2552 12.4516 27.7143 12.9108C28.1735 13.3699 28.1893 14.1299 27.7143 14.5891L27.4768 14.8266C27.1918 15.1116 27.1918 15.555 27.4768 15.84L27.9518 16.3149C29.1393 17.5183 29.1393 19.4816 27.9518 20.6691L27.7143 20.9066C27.4768 21.1441 27.176 21.255 26.8752 21.255C26.5743 21.255 26.2735 21.1441 26.036 20.9066C25.5768 20.4475 25.561 19.6875 26.036 19.2283L26.2735 18.9908C26.5585 18.7058 26.5585 18.2624 26.2735 17.9774L25.7985 17.5024Z"/>
</g>
<defs>
<filter color-interpolation-filters="sRGB" filterUnits="userSpaceOnUse" height="70.8711" width="67.7085" y="0.566406" x="0.145996" id="filter0_d_19_282">
<feFlood result="BackgroundImageFix" flood-opacity="0"/>
<!-- <feColorMatrix result="hardAlpha" values="0 0 0 0 0 0 0 0 0 0 0 0 0 0 0 0 0 0 127 0" type="matrix" in="SourceAlpha"/> -->
<feOffset dy="8"/>
<feGaussianBlur stdDeviation="10"/>
<feComposite operator="out" in2="hardAlpha"/>
<!-- <feColorMatrix values="0 0 0 0 0.486275 0 0 0 0 0.227451 0 0 0 0 0.929412 0 0 0 0.25 0" type="matrix"/> -->
<feBlend result="effect1_dropShadow_19_282" in2="BackgroundImageFix" mode="normal"/>
<feBlend result="shape" in2="effect1_dropShadow_19_282" in="SourceGraphic" mode="normal"/>
</filter>
</defs>
</svg>