<svg width="70" height="70" viewBox="0 0 70 70" fill="none" xmlns="http://www.w3.org/2000/svg">
<g filter="url(#filter0_d_123_24)">
<path fill-rule="evenodd" clip-rule="evenodd" d="M48.0944 22.3483L37.5145 13.6509C36.0531 12.4492 33.9457 12.4492 32.4843 13.6509L21.906 22.3483C21.0177 23.0782 20.595 24.2308 20.8008 25.3613L23.1047 37.9995C23.4483 39.8805 25.087 41.2485 26.9981 41.2485H42.9992C44.9118 41.2485 46.5506 39.8805 46.8926 37.9995L49.1962 25.3597C49.4052 24.2324 48.9826 23.0782 48.0944 22.3483ZM38.1668 36.1042H31.8335C31.178 36.1042 30.646 35.5722 30.646 34.9167C30.646 34.2612 31.178 33.7292 31.8335 33.7292H38.1668C38.8223 33.7292 39.3543 34.2612 39.3543 34.9167C39.3543 35.5722 38.8223 36.1042 38.1668 36.1042Z" fill="#7C3AED"/>
</g>
<defs>
<filter id="filter0_d_123_24" x="0.749512" y="0.749634" width="68.4995" height="68.4989" filterUnits="userSpaceOnUse" color-interpolation-filters="sRGB">
<feFlood flood-opacity="0" result="BackgroundImageFix"/>
<feColorMatrix in="SourceAlpha" type="matrix" values="0 0 0 0 0 0 0 0 0 0 0 0 0 0 0 0 0 0 127 0" result="hardAlpha"/>
<feOffset dy="8"/>
<feGaussianBlur stdDeviation="10"/>
<feComposite in2="hardAlpha" operator="out"/>
<feColorMatrix type="matrix" values="0 0 0 0 0.486275 0 0 0 0 0.227451 0 0 0 0 0.929412 0 0 0 0.25 0"/>
<feBlend mode="normal" in2="BackgroundImageFix" result="effect1_dropShadow_123_24"/>
<feBlend mode="normal" in="SourceGraphic" in2="effect1_dropShadow_123_24" result="shape"/>
</filter>
</defs>
</svg>
