<svg xmlns="http://www.w3.org/2000/svg" fill="none" viewBox="19.604000000000003 11.600000000000001 18.676000000000002 18.908" style="max-height: 500px" width="18.676000000000002" height="18.908">
<g filter="url(#filter0_d_173_4740)">
<path fill="#7C3AED" d="M28.9998 12.6666C24.3973 12.6666 20.6665 16.3975 20.6665 21C20.6665 25.6025 24.3973 29.3333 28.9998 29.3333C33.6023 29.3333 37.3332 25.6025 37.3332 21C37.3332 16.3975 33.6023 12.6666 28.9998 12.6666ZM29.0165 25.5833C28.5565 25.5833 28.1789 25.21 28.1789 24.75C28.1789 24.29 28.5482 23.9166 29.0082 23.9166H29.0165C29.4774 23.9166 29.8499 24.29 29.8499 24.75C29.8499 25.21 29.4765 25.5833 29.0165 25.5833ZM30.3357 21.44C29.7265 21.8484 29.6131 22.0758 29.5923 22.1358C29.5048 22.3967 29.2615 22.5616 28.9998 22.5616C28.934 22.5616 28.8673 22.5516 28.8015 22.5291C28.474 22.4191 28.2982 22.065 28.4074 21.7375C28.5582 21.2875 28.9491 20.8633 29.6391 20.4008C30.4899 19.8308 30.3807 19.2059 30.3448 19.0009C30.2507 18.4559 29.7915 17.9915 29.2523 17.8965C28.8423 17.8215 28.4416 17.929 28.1283 18.1915C27.8133 18.4557 27.6322 18.8449 27.6322 19.2582C27.6322 19.6032 27.3522 19.8832 27.0072 19.8832C26.6622 19.8832 26.3822 19.6032 26.3822 19.2582C26.3822 18.4741 26.7257 17.7366 27.3248 17.2341C27.9182 16.7374 28.699 16.53 29.4698 16.6667C30.5256 16.8533 31.3916 17.7258 31.5757 18.7874C31.7591 19.8391 31.3182 20.7817 30.3357 21.44Z"/>
</g>
<defs>
<filter color-interpolation-filters="sRGB" filterUnits="userSpaceOnUse" height="56.6666" width="56.6665" y="0.666626" x="0.666504">
<feFlood result="BackgroundImageFix" flood-opacity="0"/>
<feColorMatrix result="hardAlpha" values="0 0 0 0 0 0 0 0 0 0 0 0 0 0 0 0 0 0 127 0" type="matrix" in="SourceAlpha"/>
<feOffset dy="8"/>
<feGaussianBlur stdDeviation="10"/>
<feComposite operator="out" in2="hardAlpha"/>
<feColorMatrix values="0 0 0 0 0.486275 0 0 0 0 0.227451 0 0 0 0 0.929412 0 0 0 0.25 0" type="matrix"/>
<feBlend result="effect1_dropShadow_173_4740" in2="BackgroundImageFix" mode="normal"/>
<feBlend result="shape" in2="effect1_dropShadow_173_4740" in="SourceGraphic" mode="normal"/>
</filter>
</defs>
</svg>