<svg width="16" height="11" viewBox="0 0 16 11" fill="none" xmlns="http://www.w3.org/2000/svg">
<path d="M6.05093 0C5.04698 1.50591 4.4269 2.98229 4.19068 4.42915H4.23497C5.09128 4.63584 5.74089 5.03447 6.1838 5.62502C6.62672 6.18605 6.84817 6.83566 6.84817 7.57385C6.84817 8.45968 6.53813 9.24216 5.91805 9.9213C5.3275 10.6004 4.53025 10.94 3.52631 10.94C2.61095 10.94 1.81371 10.63 1.13457 10.0099C0.484961 9.36027 0.160156 8.47444 0.160156 7.35239C0.160156 6.20081 0.484961 4.88683 1.13457 3.41045C1.78418 1.93406 2.52237 0.797247 3.34914 0H6.05093ZM15.0421 0C14.0382 1.50591 13.4181 2.98229 13.1819 4.42915H13.2261C14.0825 4.63584 14.7321 5.03447 15.175 5.62502C15.6179 6.18605 15.8393 6.83566 15.8393 7.57385C15.8393 8.45968 15.5293 9.24216 14.9092 9.9213C14.3187 10.6004 13.5214 10.94 12.5175 10.94C11.6021 10.94 10.8049 10.63 10.1257 10.0099C9.47614 9.36027 9.15133 8.47444 9.15133 7.35239C9.15133 6.20081 9.47614 4.88683 10.1257 3.41045C10.7754 1.93406 11.5135 0.797247 12.3403 0H15.0421Z" fill="black"/>
</svg>
