<svg width="43" height="43" viewBox="0 0 43 43" fill="none" xmlns="http://www.w3.org/2000/svg">
<path d="M23.9165 17.9995C24.1416 18.7629 24.7157 19.3705 25.4575 19.6411L25.6079 19.6899L33.8062 22.1069L25.6079 24.5239C24.8445 24.749 24.237 25.3231 23.9663 26.0649L23.9165 26.2153L21.4995 34.4136L19.0825 26.2153L19.0337 26.0649C18.7811 25.3725 18.2348 24.8264 17.5425 24.5737L17.3921 24.5239L9.19287 22.1069L17.3921 19.6899C18.1553 19.4648 18.763 18.8916 19.0337 18.1499L19.0825 17.9995L21.4995 9.80029L23.9165 17.9995Z" stroke="#7C3AED" stroke-width="3"/>
<path d="M8.34521 6.85199C8.57034 7.61518 9.14358 8.22294 9.88525 8.49359L10.0356 8.54242L10.731 8.7475L10.0356 8.95258C9.27241 9.17767 8.66472 9.75091 8.39404 10.4926L8.34521 10.643L8.14014 11.3383L7.93506 10.643L7.88623 10.4926C7.63358 9.80027 7.08734 9.2541 6.39502 9.0014L6.24463 8.95258L5.54834 8.7475L6.24463 8.54242C7.0078 8.31731 7.61555 7.744 7.88623 7.00238L7.93506 6.85199L8.14014 6.1557L8.34521 6.85199Z" stroke="#7C3AED" stroke-width="3"/>
<path d="M35.0649 32.3572C35.2901 33.1204 35.8633 33.7281 36.605 33.9988L36.7554 34.0476L37.4507 34.2527L36.7554 34.4578C35.9921 34.6829 35.3844 35.2561 35.1138 35.9978L35.0649 36.1482L34.8599 36.8435L34.6548 36.1482L34.606 35.9978C34.3533 35.3055 33.8071 34.7593 33.1147 34.5066L32.9644 34.4578L32.2681 34.2527L32.9644 34.0476C33.7275 33.8225 34.3353 33.2492 34.606 32.5076L34.6548 32.3572L34.8599 31.6609L35.0649 32.3572Z" stroke="#7C3AED" stroke-width="3"/>
</svg>
