<svg width="170" height="36" viewBox="0 0 170 36" fill="none" xmlns="http://www.w3.org/2000/svg">
<g clip-path="url(#clip0_189_192)">
<path d="M96.5956 35.5V12.1667H100.636V35.5H96.5956Z" fill="#0D1131"/>
<path fill-rule="evenodd" clip-rule="evenodd" d="M106.089 34.481C107.309 35.1603 108.708 35.5 110.285 35.5C111.547 35.5 112.672 35.2665 113.66 34.7994C114.67 34.3324 115.511 33.6955 116.184 32.8888C116.878 32.0608 117.372 31.1479 117.667 30.1501H113.566C113.292 30.7446 112.872 31.2329 112.304 31.615C111.757 31.9759 111.074 32.1563 110.253 32.1563C109.16 32.1563 108.224 31.8061 107.446 31.1055C106.689 30.4049 106.268 29.4389 106.184 28.2076H118.077C118.098 27.9316 118.109 27.6663 118.109 27.4115C118.13 27.1568 118.14 26.9126 118.14 26.6791C118.14 25.2355 117.804 23.9299 117.131 22.7622C116.479 21.5734 115.564 20.6393 114.386 19.9599C113.208 19.2806 111.852 18.9409 110.316 18.9409C108.676 18.9409 107.246 19.3018 106.026 20.0236C104.827 20.7242 103.881 21.7114 103.187 22.9851C102.514 24.2589 102.177 25.7131 102.177 27.3478C102.177 28.9613 102.524 30.3837 103.218 31.615C103.912 32.8463 104.869 33.8016 106.089 34.481ZM107.698 23.1125C108.455 22.5393 109.328 22.2527 110.316 22.2527C111.347 22.2527 112.209 22.5605 112.903 23.1762C113.597 23.7919 113.976 24.6198 114.039 25.6601H106.247C106.457 24.5137 106.941 23.6645 107.698 23.1125Z" fill="#0D1131"/>
<path fill-rule="evenodd" clip-rule="evenodd" d="M125.027 35.4912C123.682 35.4912 122.578 35.279 121.717 34.8546C120.855 34.409 120.214 33.8255 119.793 33.1041C119.373 32.3827 119.163 31.587 119.163 30.7171C119.163 29.253 119.73 28.0648 120.865 27.1524C122 26.24 123.703 25.7838 125.973 25.7838H129.946V25.4019C129.946 24.3197 129.641 23.524 129.031 23.0148C128.422 22.5056 127.665 22.2509 126.761 22.2509C125.942 22.2509 125.227 22.4525 124.617 22.8557C124.008 23.2376 123.629 23.8105 123.482 24.5743H119.541C119.646 23.4286 120.024 22.4313 120.676 21.5826C121.349 20.7338 122.211 20.0867 123.262 19.6411C124.313 19.1743 125.49 18.9409 126.793 18.9409C129.021 18.9409 130.776 19.5032 132.058 20.6277C133.341 21.7523 133.982 23.3437 133.982 25.4019V35.5H130.545L130.167 32.563C129.704 33.4118 129.053 34.112 128.212 34.6637C127.392 35.2153 126.33 35.4912 125.027 35.4912ZM125.942 32.3084C127.098 32.3084 127.991 31.9265 128.622 31.1626C129.273 30.3988 129.683 29.4546 129.851 28.33H126.415C125.342 28.33 124.575 28.5316 124.113 28.9347C123.65 29.3166 123.419 29.7941 123.419 30.3669C123.419 30.9823 123.65 31.4597 124.113 31.7992C124.575 32.1387 125.185 32.3084 125.942 32.3084Z" fill="#0D1131"/>
<path d="M135.519 35.5V19.3227H139.081L139.396 21.9957C139.88 21.0623 140.573 20.3198 141.477 19.7682C142.402 19.2167 143.484 18.9409 144.724 18.9409C146.657 18.9409 148.16 19.5561 149.232 20.7865C150.303 22.0169 150.839 23.8201 150.839 26.1961V35.5H146.804V26.5779C146.804 25.2202 146.531 24.1807 145.985 23.4595C145.438 22.7382 144.587 22.3775 143.431 22.3775C142.296 22.3775 141.361 22.7806 140.626 23.5867C139.911 24.3929 139.554 25.5172 139.554 26.9598V35.5H135.519Z" fill="#0D1131"/>
<path d="M83.1652 34.4492C84.385 35.1497 85.7941 35.5 87.3925 35.5C89.3904 35.5 91.0729 34.9587 92.44 33.876C93.807 32.7932 94.6798 31.3602 95.0584 29.5769H90.7995C90.5892 30.3624 90.1686 30.9675 89.5377 31.3921C88.9277 31.8167 88.2022 32.029 87.3609 32.029C86.2463 32.029 85.2999 31.6044 84.5217 30.7552C83.7435 29.906 83.3545 28.7278 83.3545 27.2205C83.3545 25.7131 83.7435 24.5349 84.5217 23.6857C85.2999 22.8365 86.2463 22.4119 87.3609 22.4119C88.2022 22.4119 88.9277 22.6348 89.5377 23.0807C90.1686 23.5053 90.5892 24.0997 90.7995 24.864H95.0584C94.6798 23.017 93.807 21.5734 92.44 20.5331C91.0729 19.4716 89.3904 18.9409 87.3925 18.9409C85.7941 18.9409 84.385 19.2912 83.1652 19.9917C81.9454 20.6923 80.9779 21.6689 80.2629 22.9214C79.5688 24.174 79.2218 25.607 79.2218 27.2205C79.2218 28.8339 79.5688 30.2669 80.2629 31.5195C80.9779 32.772 81.9454 33.7486 83.1652 34.4492Z" fill="#0D1131"/>
<path fill-rule="evenodd" clip-rule="evenodd" d="M69.6716 35.5C68.1574 35.5 66.7903 35.1497 65.5705 34.4492C64.3717 33.7486 63.4148 32.7826 62.6998 31.5513C62.0057 30.2988 61.6587 28.8551 61.6587 27.2205C61.6587 25.5858 62.0162 24.1528 62.7313 22.9214C63.4464 21.6689 64.4033 20.6923 65.6021 19.9917C66.8219 19.2912 68.1889 18.9409 69.7032 18.9409C71.1964 18.9409 72.5424 19.2912 73.7412 19.9917C74.961 20.6923 75.9179 21.6689 76.6119 22.9214C77.327 24.1528 77.6845 25.5858 77.6845 27.2205C77.6845 28.8551 77.327 30.2988 76.6119 31.5513C75.9179 32.7826 74.961 33.7486 73.7412 34.4492C72.5214 35.1497 71.1648 35.5 69.6716 35.5ZM69.6716 31.9653C70.7232 31.9653 71.638 31.5725 72.4162 30.787C73.1944 29.9803 73.5834 28.7914 73.5834 27.2205C73.5834 25.6495 73.1944 24.4712 72.4162 23.6857C71.638 22.879 70.7337 22.4756 69.7032 22.4756C68.6306 22.4756 67.7052 22.879 66.927 23.6857C66.1699 24.4712 65.7914 25.6495 65.7914 27.2205C65.7914 28.7914 66.1699 29.9803 66.927 30.787C67.7052 31.5725 68.6201 31.9653 69.6716 31.9653Z" fill="#0D1131"/>
<path d="M44.7907 19.323V35.5H48.8284V26.9652C48.8284 25.5216 49.186 24.3965 49.901 23.5899C50.637 22.7832 51.5728 22.3799 52.7085 22.3799C53.8651 22.3799 54.7168 22.7407 55.2636 23.4625C55.8104 24.1843 56.0838 25.2245 56.0838 26.5831V35.5H60.1215V26.201C60.1215 23.8234 59.5852 22.019 58.5127 20.7877C57.4402 19.5565 55.9365 18.9409 54.0018 18.9409C52.761 18.9409 51.678 19.2168 50.7527 19.7688C49.8484 20.3207 49.1544 21.0637 48.6707 21.9978L48.3553 19.323H44.7907Z" fill="#0D1131"/>
<path fill-rule="evenodd" clip-rule="evenodd" d="M35.2407 35.5C33.7264 35.5 32.3594 35.1497 31.1396 34.4492C29.9408 33.7486 28.9839 32.7826 28.2688 31.5513C27.5748 30.2988 27.2278 28.8551 27.2278 27.2205C27.2278 25.5858 27.5853 24.1528 28.3004 22.9214C29.0154 21.6689 29.9723 20.6923 31.1711 19.9917C32.3909 19.2912 33.758 18.9409 35.2722 18.9409C36.7654 18.9409 38.1114 19.2912 39.3102 19.9917C40.53 20.6923 41.487 21.6689 42.181 22.9214C42.8961 24.1528 43.2536 25.5858 43.2536 27.2205C43.2536 28.8551 42.8961 30.2988 42.181 31.5513C41.487 32.7826 40.53 33.7486 39.3102 34.4492C38.0904 35.1497 36.7339 35.5 35.2407 35.5ZM35.2407 31.9653C36.2922 31.9653 37.2071 31.5725 37.9853 30.787C38.7634 29.9803 39.1525 28.7914 39.1525 27.2205C39.1525 25.6495 38.7634 24.4712 37.9853 23.6857C37.2071 22.879 36.3028 22.4756 35.2722 22.4756C34.1996 22.4756 33.2743 22.879 32.4961 23.6857C31.739 24.4712 31.3604 25.6495 31.3604 27.2205C31.3604 28.7914 31.739 29.9803 32.4961 30.787C33.2743 31.5725 34.1891 31.9653 35.2407 31.9653Z" fill="#0D1131"/>
<path d="M0 19.3227V35.5H4.03484V26.9594C4.03484 25.5169 4.36057 24.3926 5.01202 23.5865C5.6845 22.7804 6.55661 22.3774 7.62836 22.3774C8.72113 22.3774 9.5302 22.738 10.0556 23.4593C10.5809 24.1805 10.8436 25.2199 10.8436 26.5776V35.5H14.8785V26.9594C14.8785 25.5169 15.2042 24.3926 15.8556 23.5865C16.5281 22.7804 17.4107 22.3774 18.5035 22.3774C19.5753 22.3774 20.3633 22.738 20.8677 23.4593C21.393 24.1805 21.6557 25.2199 21.6557 26.5776V35.5H25.6906V26.1957C25.6906 23.8199 25.1442 22.0168 24.0514 20.7864C22.9586 19.5561 21.393 18.9409 19.3546 18.9409C18.2198 18.9409 17.1691 19.1954 16.2024 19.7045C15.2567 20.2137 14.5002 20.9031 13.9328 21.7728C12.9241 19.8849 11.2114 18.9409 8.79468 18.9409C7.70191 18.9409 6.73523 19.1742 5.89464 19.6409C5.07507 20.0864 4.4131 20.691 3.90875 21.4546L3.562 19.3227H0Z" fill="#0D1131"/>
<path d="M142.949 13.672C150.212 13.672 156.1 7.77472 156.1 0.5C156.1 7.77472 161.987 13.672 169.25 13.672C161.987 13.672 156.1 19.5694 156.1 26.8441C156.1 19.5694 150.212 13.672 142.949 13.672Z" fill="#4055F4"/>
</g>
<defs>
<clipPath id="clip0_189_192">
<rect width="169.25" height="35" fill="white" transform="translate(0 0.5)"/>
</clipPath>
</defs>
</svg>
